<?xml version="1.0" encoding="iso-8859-1"?>
<!-- Uploaded to: SVG Repo, www.svgrepo.com, Generator: SVG Repo Mixer Tools -->
<svg fill="#000000" height="800px" width="800px" version="1.1" id="Layer_1" xmlns="http://www.w3.org/2000/svg" xmlns:xlink="http://www.w3.org/1999/xlink" 
	 viewBox="0 0 512 512" xml:space="preserve">
<g>
	<g>
		<path d="M438.547,100.032h0.845c27.58,0,50.016-22.436,50.016-50.016C489.407,22.436,466.971,0,439.392,0H72.609
			c-27.58,0-50.016,22.436-50.016,50.016c0,27.58,22.436,50.016,50.016,50.016h0.845c5.062,55.834,35.199,104.503,79.09,134.615
			L89.937,411.308c-0.223-0.002-0.432-0.067-0.657-0.067c-27.58,0-50.016,22.436-50.016,50.016s22.436,50.016,50.016,50.016
			s50.016-22.436,50.016-50.016c0-15.407-7.149-29.035-18.137-38.217l9.606-27.109l108.562-43.424v75.405
			c0,9.21,7.462,16.672,16.672,16.672c9.21,0,16.672-7.462,16.672-16.672v-75.405l109.521,43.807l37.596,104.603
			c7.502,20.842,38.863,9.545,31.379-11.277l-91.664-255.031C403.369,204.497,433.486,155.845,438.547,100.032z M239.328,316.596
			l-93.734,37.495l36.508-103.02c17.79,7.87,37.024,13.004,57.226,14.836V316.596z M367.119,354.376l-94.447-37.781v-50.688
			c20.232-1.834,39.491-6.982,57.304-14.872L367.119,354.376z M72.609,66.688c-9.193,0-16.672-7.479-16.672-16.672
			c0-9.193,7.479-16.672,16.672-16.672h366.783c9.193,0,16.672,7.479,16.672,16.672c0,9.193-7.479,16.672-16.672,16.672H72.609z"/>
	</g>
</g>
</svg>