<?xml version="1.0" encoding="iso-8859-1"?>
<!-- Uploaded to: SVG Repo, www.svgrepo.com, Generator: SVG Repo Mixer Tools -->
<svg fill="#000000" height="800px" width="800px" version="1.1" id="Layer_1" xmlns="http://www.w3.org/2000/svg" xmlns:xlink="http://www.w3.org/1999/xlink" 
	 viewBox="0 0 512 512" xml:space="preserve">
<g>
	<g>
		<path d="M456.348,178.087h-16.696V116.87C439.652,52.429,387.223,0,322.783,0H189.217c-64.441,0-116.87,52.429-116.87,116.87
			v61.217H55.652c-27.603,0-50.087,22.483-50.087,50.087v34.838c0,11.91,7.457,22.706,18.588,26.936
			c19.811,7.331,30.172-6.231,39.847-17.363c8.57-9.795,24.821-9.795,33.391,0c10.749,12.361,26.102,18.922,41.739,18.922
			c15.629,0,30.986-6.555,41.739-18.922c8.57-9.795,24.821-9.795,33.391,0c10.749,12.361,26.102,18.922,41.739,18.922
			c15.629,0,30.986-6.555,41.739-18.922c8.57-9.795,24.821-9.795,33.391,0c10.749,12.361,26.102,18.922,41.739,18.922
			c15.629,0,30.986-6.555,41.739-18.922c8.57-9.795,24.821-9.795,33.391,0c9.673,11.13,20.134,24.839,39.847,17.363
			c11.13-4.23,18.588-15.026,18.588-26.936v-34.838C506.435,200.57,483.951,178.087,456.348,178.087z M406.261,178.087H105.739
			V116.87c0-46.032,37.446-83.478,83.478-83.478h133.565c46.032,0,83.478,37.446,83.478,83.478V178.087z"/>
	</g>
</g>
<g>
	<g>
		<path d="M314.44,303.027c-12.9,11.286-26.686,17.219-41.745,20.098v55.309h83.478v-55.31
			C341.096,320.243,327.393,314.362,314.44,303.027z"/>
	</g>
</g>
<g>
	<g>
		<path d="M473.044,428.522c0-8.653,0-95.076,0-103.658c-16.161-1.244-31.274-8.661-42.016-20.907l-0.343-0.392
			c-12.363,10.623-25.736,16.619-41.119,19.56v55.31h50.087v16.696c0,5.878-1.096,11.471-2.974,16.696h-47.113v66.783h-33.391
			v-66.783h-83.478v66.783h-33.391v-66.783h-83.478v66.783h-33.391v-66.783H75.322c-1.878-5.225-2.974-10.818-2.974-16.696v-16.696
			h50.087v-55.31c-15.076-2.882-28.465-8.69-41.119-19.56l-0.239,0.277c-10.974,12.36-26.054,19.743-42.12,21.005
			c0,13.82,0,88.755,0,103.674c0,5.726,0.637,11.294,1.734,16.696h-0.051C48.315,482.886,81.827,512,122.435,512
			c96.508,0,166.956,0,267.13,0c40.11,0,74.037-28.709,81.795-66.783h-0.051C472.407,439.816,473.044,434.247,473.044,428.522z"/>
	</g>
</g>
<g>
	<g>
		<path d="M197.571,303.027c-12.9,11.286-26.686,17.219-41.745,20.098v55.309h83.478v-55.31
			C224.226,320.243,210.523,314.362,197.571,303.027z"/>
	</g>
</g>
</svg>